HIERARCHY
ROOT Hips
{
	OFFSET	0.00	0.00	0.00
	CHANNELS 6 Xposition Yposition Zposition Zrotation Xrotation Yrotation
	JOINT LeftUpLeg
	{
		OFFSET	 0.126116	-0.014019	-0.065224
		CHANNELS 3 Zrotation Xrotation Yrotation
		JOINT LeftLeg
		{
			OFFSET	 0.000000	 0.000000	 0.569914
			CHANNELS 3 Zrotation Xrotation Yrotation
			JOINT LeftFoot
			{
				OFFSET	 0.000000	 0.000000	 0.544423
				CHANNELS 3 Zrotation Xrotation Yrotation
				JOINT LeftToeBase
				{
					OFFSET	 0.000000	 0.000000	 0.207117
					CHANNELS 3 Zrotation Xrotation Yrotation
					End Site
					{
						OFFSET	 0.000000	 0.000000	 0.207117
					}
				}
			}
		}
	}
	JOINT RightUpLeg
	{
		OFFSET	-0.124023	-0.008373	-0.065224
		CHANNELS 3 Zrotation Xrotation Yrotation
		JOINT RightLeg
		{
			OFFSET	 0.000000	 0.000000	 0.570047
			CHANNELS 3 Zrotation Xrotation Yrotation
			JOINT RightFoot
			{
				OFFSET	 0.000000	 0.000000	 0.544354
				CHANNELS 3 Zrotation Xrotation Yrotation
				JOINT RightToeBase
				{
					OFFSET	 0.000000	 0.000000	 0.207540
					CHANNELS 3 Zrotation Xrotation Yrotation
					End Site
					{
						OFFSET	 0.000000	 0.000000	 0.207540
					}
				}
			}
		}
	}
	JOINT Spine
	{
		OFFSET	 0.000184	-0.007763	 0.117403
		CHANNELS 3 Zrotation Xrotation Yrotation
		JOINT Spine1
		{
			OFFSET	 0.000000	 0.000000	 0.137269
			CHANNELS 3 Zrotation Xrotation Yrotation
			JOINT Spine2
			{
				OFFSET	 0.000000	 0.000000	 0.156879
				CHANNELS 3 Zrotation Xrotation Yrotation
				JOINT LeftShoulder
				{
					OFFSET	 0.080501	-0.002496	 0.160144
					CHANNELS 3 Zrotation Xrotation Yrotation
					JOINT LeftArm
					{
						OFFSET	 0.000000	 0.000000	 0.164363
						CHANNELS 3 Zrotation Xrotation Yrotation
						JOINT LeftForeArm
						{
							OFFSET	 0.000000	 0.000000	 0.364576
							CHANNELS 3 Zrotation Xrotation Yrotation
							JOINT LeftHand
							{
								OFFSET	 0.000000	 0.000000	 0.360812
								CHANNELS 3 Zrotation Xrotation Yrotation
								JOINT LeftHandIndex1
								{
									OFFSET	 0.000000	 0.000000	 0.086006
									CHANNELS 3 Zrotation Xrotation Yrotation
									JOINT LeftHandIndex2
									{
										OFFSET	 0.000000	 0.000000	 0.047236
										CHANNELS 3 Zrotation Xrotation Yrotation
										JOINT LeftHandIndex3
										{
											OFFSET	-0.004284	-0.000551	 0.038166
											CHANNELS 3 Zrotation Xrotation Yrotation
											End Site
											{
												OFFSET	-0.004284	-0.000551	 0.038166
											}
										}
									}
								}
							}
						}
					}
				}
				JOINT Neck
				{
					OFFSET	 0.000000	 0.000000	 0.176489
					CHANNELS 3 Zrotation Xrotation Yrotation
					JOINT Head
					{
						OFFSET	 0.000000	-0.001747	 0.077940
						CHANNELS 3 Zrotation Xrotation Yrotation
						End Site
						{
							OFFSET	 0.000000	-0.001747	 0.077940
						}
					}
				}
				JOINT RightShoulder
				{
					OFFSET	-0.080363	 0.000306	 0.159706
					CHANNELS 3 Zrotation Xrotation Yrotation
					JOINT RightArm
					{
						OFFSET	 0.000000	 0.000000	 0.164196
						CHANNELS 3 Zrotation Xrotation Yrotation
						JOINT RightForeArm
						{
							OFFSET	 0.000000	 0.000000	 0.365611
							CHANNELS 3 Zrotation Xrotation Yrotation
							JOINT RightHand
							{
								OFFSET	 0.000000	 0.000000	 0.360648
								CHANNELS 3 Zrotation Xrotation Yrotation
								JOINT RightHandIndex1
								{
									OFFSET	 0.000000	 0.000000	 0.069977
									CHANNELS 3 Zrotation Xrotation Yrotation
									JOINT RightHandIndex2
									{
										OFFSET	 0.000000	 0.000000	 0.052305
										CHANNELS 3 Zrotation Xrotation Yrotation
										JOINT RightHandIndex3
										{
											OFFSET	 0.009002	-0.000782	 0.042196
											CHANNELS 3 Zrotation Xrotation Yrotation
											End Site
											{
												OFFSET	 0.009002	-0.000782	 0.042196
											}
										}
									}
								}
							}
						}
					}
				}
			}
		}
	}
}
MOTION
Frames:    12
Frame Time: 0.03333334
 0.000535	 0.041447	 1.275447	-0.104279	 2.039623	 0.601015	 4.015247	-5.320206	 178.051000	 2.377623	-13.347880	 0.645551	-0.577537	 71.363980	 0.347019	-2.385833	 28.452750	 0.000004	 3.589347	-4.640546	-178.517300	-0.812613	-11.416580	 0.859387	 5.578986	 70.070430	 0.739094	 2.384659	 28.388700	-0.000001	 0.559309	 6.693596	 0.084756	 0.407158	-4.013961	 0.172356	-0.732150	 6.955096	 0.304474	-91.278690	 70.561940	-178.091500	-8.046249	 2.631180	-21.536150	 26.435840	-0.136235	-0.503106	-10.482350	-20.887790	-4.169570	-2.027600	 6.559038	 9.033609	-5.188889	 0.308190	 3.541030	-5.234859	 0.342567	 0.430617	 4.151021	 15.763230	-6.054959	-5.893151	-11.783690	 1.960388	 89.163580	 69.746960	 177.684400	 10.242410	 8.488402	 4.468663	-25.507140	-10.231280	 28.897340	 8.104801	-21.351330	 6.877467	 1.803333	 3.979147	-15.098590	 4.898592	 3.004813	-9.310344	 5.224449	 0.395017	 2.014677
 0.000220	 0.044877	 1.276683	-0.063360	 2.904355	 0.671216	 4.051810	-5.935851	 178.026000	 2.181724	-12.309310	 0.554280	-0.142224	 70.502780	 0.063600	-2.385833	 28.452750	 0.000004	 3.394892	-4.979928	-178.469900	-0.801369	-9.836135	 0.743631	 4.955615	 69.063720	 1.376901	 2.384659	 28.388700	-0.000001	-0.103088	 7.537536	 0.092031	 0.350746	-6.769502	 0.126906	-0.589476	 10.539170	 0.379557	-91.058730	 69.042460	-177.577100	-6.750943	 1.622070	-23.946630	 25.430150	-0.126463	-0.734657	-8.544331	-22.798930	-4.663998	-2.027600	 6.559038	 9.033609	-5.188889	 0.308190	 3.541030	-5.234859	 0.342567	 0.430617	 4.604661	 19.734220	-7.306394	-5.697712	-14.442820	 1.837211	 88.863490	 67.658350	 177.066500	 9.553702	 7.725096	 6.354276	-25.178790	-10.403950	 30.019160	 5.894942	-22.484310	 6.259854	 1.803333	 3.979147	-15.098590	 4.898592	 3.004813	-9.310344	 5.224449	 0.395017	 2.014677
-0.000348	 0.049863	 1.277011	 0.024423	 4.004564	 0.778967	 3.939728	-7.243653	 177.949000	 2.099633	-11.986240	 0.534791	 0.173669	 70.047310	-0.263531	-2.385833	 28.452750	 0.000004	 3.151445	-5.939201	-178.489900	-0.804781	-8.851660	 0.669309	 4.369215	 68.250860	 2.010635	 2.384659	 28.388700	-0.000001	-0.673504	 8.272772	 0.103114	 0.332104	-9.239113	 0.039621	-0.672978	 13.549110	 0.496704	-90.895910	 67.921840	-177.251600	-5.547608	 2.101903	-26.453060	 24.275090	-0.110634	-0.992637	-7.301356	-25.078240	-5.541977	-2.027600	 6.559038	 9.033609	-5.188889	 0.308190	 3.541030	-5.234859	 0.342567	 0.430617	 4.728577	 23.045340	-8.285191	-5.372487	-16.903890	 1.749970	 88.572240	 65.635410	 176.570700	 8.453064	 8.120540	 8.197090	-24.602900	-10.304440	 30.937610	 3.971714	-23.899230	 5.885146	 1.803333	 3.979147	-15.098590	 4.898592	 3.004813	-9.310344	 5.224449	 0.395017	 2.014677
-0.000995	 0.056292	 1.277028	 0.133619	 5.341340	 0.919437	 3.882469	-9.024813	 177.856800	 2.147550	-11.935810	 0.530635	 0.554286	 69.690280	-0.677641	-2.385833	 28.452760	 0.000004	 2.832535	-7.256390	-178.547700	-1.025433	-7.924329	 0.569084	 3.963856	 67.416890	 2.690051	 2.384659	 28.388700	-0.000001	-1.207179	 8.898291	 0.065169	 0.326552	-11.450670	 0.003492	-0.894090	 16.119450	 0.589843	-90.827840	 66.663630	-177.255700	-4.171404	 3.009804	-28.906110	 22.406650	-0.083574	-1.270909	-7.047093	-27.287620	-6.863338	-2.027600	 6.559038	 9.033609	-5.188889	 0.308190	 3.541030	-5.234859	 0.342567	 0.430617	 4.563894	 25.360660	-8.770476	-5.091254	-18.743680	 1.577234	 88.407830	 63.545730	 176.471500	 6.650050	 8.906297	 10.036570	-23.691080	-9.793866	 31.451350	 2.361308	-25.223050	 5.959364	 1.803333	 3.979147	-15.098590	 4.898592	 3.004813	-9.310344	 5.224449	 0.395017	 2.014677
-0.001611	 0.064278	 1.276740	 0.296582	 6.978111	 1.056276	 3.664517	-11.516030	 177.767300	 2.111259	-12.510370	 0.547903	 1.109718	 69.514340	-1.252347	-2.385832	 28.452790	-0.000001	 2.514827	-9.142559	-178.608300	-1.316155	-7.347917	 0.480702	 3.766527	 66.695400	 3.313078	 2.384659	 28.388700	-0.000001	-1.742340	 9.401275	-0.018489	 0.355204	-13.397270	 0.026431	-1.219167	 18.246750	 0.685965	-90.974980	 65.382130	-177.832000	-2.702363	 4.006551	-30.846170	 20.055830	-0.046020	-1.573569	-7.665477	-29.202180	-8.540501	-2.027600	 6.559038	 9.033609	-5.188889	 0.308190	 3.541030	-5.234859	 0.342567	 0.430617	 4.150175	 26.651650	-8.818690	-4.890898	-19.928610	 1.329864	 88.506000	 61.664810	 176.956600	 4.226452	 9.784750	 11.296250	-22.458030	-9.130722	 32.175010	 1.029602	-26.420560	 6.412712	 1.803333	 3.979147	-15.098590	 4.898592	 3.004813	-9.310344	 5.224449	 0.395017	 2.014677
-0.001874	 0.074138	 1.275814	 0.599969	 8.980989	 1.102887	 3.247198	-14.888450	 177.775800	 2.022726	-13.847190	 0.584129	 1.924763	 69.389350	-2.059071	-2.385833	 28.452760	 0.000004	 1.985320	-12.075650	-178.650500	-1.586035	-7.892595	 0.489501	 3.602250	 66.387940	 3.727854	 2.384659	 28.388700	-0.000001	-2.346561	 9.665812	-0.120139	 0.451673	-15.288220	 0.112104	-1.594965	 19.886420	 0.855835	-91.591960	 64.789380	-179.515400	-1.291066	 5.817707	-31.345490	 18.309230	-0.005878	-1.891358	-8.500640	-30.593470	-10.282610	-2.027600	 6.559038	 9.033609	-5.188889	 0.308190	 3.541030	-5.234859	 0.342567	 0.430617	 3.660063	 26.987690	-8.733365	-4.723506	-20.569120	 1.150265	 89.078320	 60.891570	 178.366200	 1.380238	 11.542760	 10.913240	-21.296800	-8.751715	 33.686350	-0.141700	-27.631850	 6.881148	 1.803333	 3.979147	-15.098590	 4.898592	 3.004813	-9.310344	 5.224449	 0.395017	 2.014677
-0.002101	 0.085670	 1.274587	 0.812568	 11.203140	 1.053807	 2.906457	-18.471110	 177.887900	 2.028874	-14.945680	 0.631039	 2.702316	 69.201210	-2.938709	-2.385832	 28.452790	-0.000001	 1.742775	-15.598260	-178.584400	-1.770729	-8.907589	 0.523264	 3.333772	 66.313530	 4.261971	 2.384659	 28.388700	-0.000001	-2.958055	 9.922366	-0.115218	 0.603155	-16.651000	 0.091364	-1.917492	 20.931160	 1.281372	-92.368740	 65.021640	 178.423800	-0.076139	 8.771472	-31.744790	 17.851290	 0.030489	-2.218172	-8.648133	-31.786400	-11.245550	-2.027600	 6.559038	 9.033609	-5.188889	 0.308190	 3.541030	-5.234859	 0.342567	 0.430617	 3.238358	 25.699160	-8.953905	-4.588686	-20.256720	 0.918249	 89.841190	 60.414700	-179.864900	-1.555507	 13.969870	 10.763010	-19.818300	-7.989007	 34.892040	-0.412579	-29.054670	 7.358233	 1.803333	 3.979147	-15.098590	 4.898592	 3.004813	-9.310344	 5.224449	 0.395017	 2.014677
-0.003281	 0.099795	 1.273257	 1.536467	 14.363780	 1.077159	 1.894477	-23.093830	 177.728700	 2.436557	-15.807400	 0.777791	 2.946497	 68.576550	-3.678611	-2.385832	 28.452790	-0.000001	 0.971279	-20.140530	-178.745700	-1.615564	-9.916446	 0.608781	 2.391881	 65.843570	 5.196082	 2.384659	 28.388700	-0.000001	-3.755604	 9.808884	-0.163927	 0.470129	-17.556230	 0.005352	-2.306308	 21.101440	 1.419944	-93.109470	 65.226510	 176.419900	 1.554684	 11.547100	-32.529880	 17.419180	 0.075730	-2.559702	-8.666622	-32.604920	-12.031890	-2.027600	 6.559038	 9.033609	-5.188889	 0.308190	 3.541030	-5.234859	 0.342567	 0.430617	 2.871896	 24.769360	-8.768559	-4.533970	-20.232090	 0.621217	 90.653680	 60.405350	-178.009100	-4.840144	 16.699760	 11.582850	-18.421440	-7.079464	 35.596340	-0.427049	-30.189780	 8.027955	 1.803333	 3.979147	-15.098590	 4.898592	 3.004813	-9.310344	 5.224449	 0.395017	 2.014677
-0.005531	 0.114725	 1.271522	 2.665550	 18.022950	 1.039744	 0.305352	-28.034720	 177.274400	 3.081551	-16.330240	 0.984698	 2.633396	 67.247700	-4.085976	-2.385833	 28.452760	 0.000004	-0.218704	-25.012530	-179.066100	-1.474259	-10.881350	 0.694111	 1.432242	 65.097030	 6.191286	 2.384659	 28.388700	-0.000001	-4.704124	 9.634096	-0.256316	 0.103097	-17.727070	-0.034873	-2.715307	 20.531460	 1.246590	-93.768200	 65.483460	 174.585400	 3.153960	 13.654250	-33.654200	 16.943530	 0.131281	-2.914348	-8.724796	-33.260280	-12.753040	-2.027600	 6.559038	 9.033609	-5.188889	 0.308190	 3.541030	-5.234859	 0.342567	 0.430617	 2.548299	 24.207960	-8.110156	-4.586927	-20.498410	 0.174008	 91.445600	 60.804980	-176.150300	-8.165268	 19.454770	 13.401630	-17.194850	-6.266069	 36.337030	-0.253250	-31.046310	 8.809320	 1.803333	 3.979147	-15.098590	 4.898592	 3.004813	-9.310344	 5.224449	 0.395017	 2.014677
-0.008399	 0.128388	 1.269865	 3.937596	 21.431670	 0.776997	-1.461456	-32.141810	 176.723000	 3.664130	-16.173900	 1.138466	 2.460762	 66.560240	-4.569468	-2.385833	 28.452760	 0.000004	-1.480585	-29.811900	-179.356600	-1.960531	-12.848550	 0.709125	 1.312105	 65.685940	 6.934261	 2.384659	 28.388700	-0.000001	-5.702174	 9.937449	-0.345571	-0.322661	-16.392360	 0.123321	-3.081453	 19.322900	 0.806287	-94.276660	 66.027820	 173.015700	 4.206309	 15.112780	-35.456040	 16.489490	 0.197108	-3.278522	-9.017115	-34.105590	-13.514710	-2.027600	 6.559038	 9.033609	-5.188889	 0.308190	 3.541030	-5.234859	 0.342567	 0.430617	 2.244035	 23.771260	-6.988783	-4.790879	-20.894180	-0.560836	 92.145940	 61.491930	-174.399700	-11.126970	 21.973970	 16.332840	-16.268810	-5.818822	 37.923480	 0.070142	-31.737670	 9.558355	 1.803333	 3.979147	-15.098590	 4.898592	 3.004813	-9.310344	 5.224449	 0.395017	 2.014677
-0.011434	 0.139641	 1.265904	 4.346338	 22.714780	 0.595599	-2.053861	-35.168650	 176.415000	 3.728808	-18.726170	 1.332933	 2.979961	 67.596270	-5.168320	-2.385833	 28.452750	 0.000004	-1.851104	-33.390900	-179.520100	-1.937986	-16.831140	 0.929859	 1.119287	 67.445660	 7.233593	 2.384659	 28.388700	-0.000001	-6.394518	 11.309090	-0.414490	-0.318912	-12.379470	 0.269082	-3.182724	 17.947890	 0.504790	-94.520630	 67.597690	 171.618000	 4.519927	 16.177100	-38.619160	 16.173210	 0.275406	-3.666873	-9.376177	-35.304080	-14.210340	-2.027600	 6.559038	 9.033609	-5.188889	 0.308190	 3.541030	-5.234859	 0.342567	 0.430617	 1.739265	 23.007840	-6.298579	-4.841206	-21.246010	-1.063133	 92.620740	 62.241350	-173.089400	-12.578400	 24.081040	 20.966890	-15.274630	-5.210618	 39.327930	 1.774999	-32.978500	 10.814920	 1.803333	 3.979147	-15.098590	 4.898592	 3.004813	-9.310344	 5.224449	 0.395017	 2.014677
-0.014107	 0.156478	 1.260095	 3.979263	 24.217750	 0.484643	-1.871235	-38.980670	 176.377600	 3.786869	-21.314570	 1.530276	 3.686369	 67.996530	-5.979776	-2.385833	 28.452750	 0.000004	-1.211987	-37.683350	-179.317300	-2.273922	-20.156640	 0.990507	 1.410587	 68.110790	 7.407458	 2.384659	 28.388700	-0.000001	-6.937979	 12.221000	-0.518450	 0.071677	-8.591847	 0.397905	-3.164614	 16.572100	 0.538162	-94.533570	 69.619370	 170.278200	 4.374256	 16.926040	-41.889880	 15.393860	 0.371914	-4.070594	-10.486780	-37.097680	-15.095930	-2.027600	 6.559038	 9.033609	-5.188889	 0.308190	 3.541030	-5.234859	 0.342567	 0.430617	 1.251873	 21.922990	-6.008145	-4.797048	-21.388280	-1.310735	 92.978900	 63.672470	-171.757000	-13.568210	 26.047460	 26.119380	-14.173440	-4.277907	 39.727120	 4.311825	-34.635570	 12.409100	 1.803333	 3.979147	-15.098590	 4.898592	 3.004813	-9.310344	 5.224449	 0.395017	 2.014677
